# xmcd
#
# Track frame offsets: 
#        150
#        13620
#        28367
#        43668
#        57270
#        74290
#        92621
#        108702
#        123656
#        139529
#        155330
#        169875
#        186082
#        197586
#
# Disc length: 2852 seconds
#
# Revision: 12
# Processed by: cddbd v1.5.2PL0 Copyright (c) Steve Scherf et al.
# Submitted via: ExactAudioCopy v0.99pb4
#
DISCID=c40b220e
DTITLE=Avril Lavigne - Under My Skin
DYEAR=2004
DGENRE=Rock
TTITLE0=Take Me Away
TTITLE1=Together
TTITLE2=Don't Tell Me
TTITLE3=He Wasn't
TTITLE4=How Does It Feel
TTITLE5=My Happy Ending
TTITLE6=Nobody's Home
TTITLE7=Forgotten
TTITLE8=Who Knows
TTITLE9=Fall To Pieces
TTITLE10=Freak Out
TTITLE11=Slipped Away
TTITLE12=I Always Get What I Want
TTITLE13=Nobody's Home (LIVE Acoustic)
EXTD=YEAR: 2004
EXTT0=
EXTT1=
EXTT2=
EXTT3=
EXTT4=
EXTT5=
EXTT6=
EXTT7=
EXTT8=
EXTT9=
EXTT10=
EXTT11=
EXTT12=
EXTT13=
PLAYORDER=
